# xmcd
#
# Track frame offsets: 
#        150
#        14280
#        39506
#        57937
#        75401
#        100433
#        113859
#        126436
#        140633
#        153405
#        167935
#        188347
#        202270
#        215070
#        225101
#        235189
#        248706
#        260854
#        273246
#        285743
#
# Disc length: 4038 seconds
#
# Revision: 1
# Processed by: cddbd v1.5.2PL0 Copyright (c) Steve Scherf et al.
# Submitted via: ExactAudioCopyFreeDBPlugin 1.0
#
DISCID=210fc414
DTITLE=Sly and the Family Stone - Higher! [box set]
DYEAR=2013
DGENRE=Soul
TTITLE0=What's That Got to Do with Me
TTITLE1=Fortune and Fame
TTITLE2=What Would I Do
TTITLE3=Only One Way Out of This Mess
TTITLE4=I Know What You Came to Say
TTITLE5=Dance to the Music
TTITLE6=Ride the Rhythm
TTITLE7=Color Me True
TTITLE8=Are You Ready
TTITLE9=Don't Burn Baby
TTITLE10=We Love All
TTITLE11=Danse à la Musique (as "The French Fries")
TTITLE12=Small Fries (as "The French Fries")
TTITLE13=Chicken
TTITLE14=Into My Own Thing
TTITLE15=Life
TTITLE16=Love City
TTITLE17=M'lady
TTITLE18=Dynamite! (ft Johnny Robinson on vocals)
TTITLE19=Undercat
EXTD=
EXTT0=
EXTT1=
EXTT2=
EXTT3=
EXTT4=
EXTT5=
EXTT6=
EXTT7=
EXTT8=
EXTT9=
EXTT10=
EXTT11=
EXTT12=
EXTT13=
EXTT14=
EXTT15=
EXTT16=
EXTT17=
EXTT18=
EXTT19=
PLAYORDER=
